<?xml version="1.0" encoding="iso-8859-1"?>
<!-- Generator: Adobe Illustrator 19.2.1, SVG Export Plug-In . SVG Version: 6.00 Build 0)  -->
<svg version="1.1" id="Layer_1" xmlns="http://www.w3.org/2000/svg" xmlns:xlink="http://www.w3.org/1999/xlink" x="0px" y="0px"
	 viewBox="0 0 40 40" style="enable-background:new 0 0 40 40;" xml:space="preserve">
<g>
	<path style="fill:#F78F8F;" d="M20,38.372c-0.164,0-0.316-0.055-0.442-0.158l-3.419-2.799l-4.334,0.888
		c-0.052,0.011-0.099,0.016-0.146,0.016c-0.276,0-0.526-0.168-0.638-0.43l-1.726-4.066l-4.247-1.224
		C4.731,30.507,4.52,30.2,4.546,29.87l0.359-4.405l-3.19-3.059c-0.24-0.229-0.285-0.598-0.107-0.877l2.367-3.733L2.57,13.603
		c-0.104-0.312,0.028-0.66,0.314-0.826l3.831-2.209l0.705-4.363C7.472,5.878,7.75,5.631,8.08,5.618l4.417-0.174l2.65-3.537
		c0.132-0.174,0.342-0.279,0.561-0.279c0.104,0,0.204,0.023,0.298,0.067l3.993,1.9l3.992-1.899c0.095-0.046,0.194-0.068,0.298-0.068
		c0.22,0,0.429,0.104,0.561,0.279l2.652,3.537l4.417,0.174c0.33,0.013,0.609,0.261,0.663,0.588l0.705,4.361l3.83,2.208
		c0.287,0.165,0.419,0.513,0.315,0.828l-1.405,4.19l2.367,3.733c0.176,0.28,0.131,0.649-0.108,0.878l-3.191,3.06l0.36,4.406
		c0.027,0.33-0.185,0.636-0.503,0.729l-4.245,1.224l-1.728,4.068c-0.11,0.259-0.361,0.427-0.638,0.427
		c-0.047,0-0.094-0.005-0.14-0.015l-4.338-0.889l-3.419,2.799C20.316,38.317,20.163,38.372,20,38.372z"/>
	<path style="fill:#C74343;" d="M24.29,2.128c0.063,0,0.123,0.03,0.16,0.079l2.509,3.347l0.285,0.381l0.475,0.019l4.178,0.165
		c0.095,0.004,0.175,0.076,0.19,0.166l0.667,4.128l0.076,0.469l0.412,0.238l3.625,2.09c0.082,0.047,0.119,0.147,0.09,0.234
		l-1.329,3.966l-0.151,0.451l0.255,0.402l2.238,3.531c0.05,0.08,0.038,0.185-0.031,0.251l-3.019,2.894l-0.343,0.329l0.039,0.474
		l0.34,4.169c0.008,0.095-0.051,0.18-0.142,0.207l-4.018,1.158l-0.457,0.132l-0.186,0.438l-1.634,3.848
		c-0.034,0.08-0.106,0.119-0.203,0.119c-0.006,0-0.013,0-0.02-0.001l-4.1-0.84l-0.466-0.095l-0.368,0.301l-3.235,2.648
		c-0.037,0.03-0.079,0.045-0.126,0.045s-0.09-0.015-0.126-0.045l-3.235-2.648l-0.368-0.301l-0.466,0.095l-4.146,0.846
		c-0.074,0-0.146-0.051-0.177-0.123l-1.634-3.849l-0.186-0.438l-0.457-0.132l-4.015-1.158c-0.091-0.027-0.152-0.114-0.144-0.208
		l0.34-4.169l0.039-0.474L5.08,24.939l-3.02-2.896c-0.067-0.064-0.08-0.169-0.03-0.247l2.24-3.533l0.255-0.402L4.374,17.41
		l-1.33-3.965c-0.03-0.089,0.008-0.188,0.09-0.235l3.624-2.09l0.412-0.238l0.076-0.469l0.667-4.128
		C7.928,6.192,8.007,6.122,8.1,6.118l4.179-0.165l0.475-0.019l0.285-0.381l2.506-3.344c0.038-0.051,0.099-0.081,0.163-0.081
		c0.029,0,0.056,0.006,0.084,0.019l3.777,1.797l0.43,0.204l0.43-0.204l3.781-1.799C24.235,2.134,24.262,2.128,24.29,2.128
		 M24.289,1.128c-0.174,0-0.349,0.038-0.513,0.117l-3.777,1.797l-3.777-1.797c-0.165-0.079-0.34-0.116-0.513-0.116
		c-0.368,0-0.727,0.17-0.961,0.479L12.24,4.954L8.06,5.119C7.491,5.142,7.017,5.562,6.926,6.126l-0.667,4.128l-3.624,2.09
		c-0.493,0.284-0.72,0.877-0.539,1.418l1.33,3.966l-2.24,3.533c-0.305,0.481-0.229,1.112,0.184,1.506l3.019,2.894l-0.34,4.169
		c-0.046,0.569,0.315,1.09,0.861,1.249l4.018,1.158l1.634,3.849c0.192,0.447,0.628,0.733,1.098,0.733
		c0.081,0,0.164-0.009,0.246-0.026l4.101-0.84l3.235,2.648c0.221,0.181,0.489,0.271,0.759,0.271c0.27,0,0.538-0.09,0.759-0.271
		l3.236-2.648l4.1,0.84c0.082,0.017,0.164,0.026,0.245,0.026c0.47,0,0.908-0.284,1.099-0.732l1.634-3.849l4.018-1.158
		c0.548-0.159,0.908-0.68,0.861-1.249l-0.34-4.169l3.019-2.894c0.412-0.394,0.488-1.025,0.184-1.507l-2.239-3.533l1.329-3.966
		c0.179-0.541-0.046-1.134-0.539-1.418l-3.624-2.09l-0.667-4.128c-0.093-0.563-0.568-0.983-1.137-1.006l-4.179-0.165L25.25,1.607
		C25.017,1.298,24.657,1.128,24.289,1.128L24.289,1.128z"/>
</g>
<g>
	<path style="fill:#FFFFFF;" d="M14.752,20.03c-1.235,0-2.219-0.396-2.95-1.189c-0.731-0.792-1.097-1.851-1.097-3.175
		c0-1.447,0.388-2.586,1.164-3.419c0.776-0.833,1.822-1.249,3.139-1.249c1.276,0,2.265,0.386,2.968,1.158s1.054,1.857,1.054,3.255
		s-0.394,2.517-1.182,3.358C17.06,19.61,16.028,20.03,14.752,20.03z M14.923,12.704c-0.666,0-1.193,0.256-1.579,0.768
		s-0.579,1.215-0.579,2.109c0,0.878,0.189,1.56,0.567,2.048s0.896,0.731,1.554,0.731s1.174-0.254,1.548-0.762
		c0.374-0.508,0.561-1.213,0.561-2.115c0-0.878-0.185-1.56-0.555-2.048S15.565,12.704,14.923,12.704z M26.589,11.254L15.374,28.856
		h-1.743l11.203-17.602H26.589z M25.016,29.002c-1.235,0-2.219-0.396-2.95-1.189c-0.731-0.792-1.097-1.851-1.097-3.175
		c0-1.447,0.388-2.586,1.164-3.419c0.776-0.833,1.822-1.249,3.139-1.249c1.276,0,2.265,0.386,2.968,1.158
		c0.703,0.772,1.054,1.857,1.054,3.255c0,1.398-0.394,2.517-1.182,3.358C27.324,28.582,26.292,29.002,25.016,29.002z M25.187,21.676
		c-0.666,0-1.193,0.256-1.579,0.768c-0.386,0.512-0.579,1.215-0.579,2.109c0,0.878,0.189,1.56,0.567,2.048s0.896,0.731,1.554,0.731
		s1.174-0.254,1.548-0.762c0.374-0.508,0.561-1.213,0.561-2.115c0-0.878-0.185-1.56-0.555-2.048S25.829,21.676,25.187,21.676z"/>
</g>
</svg>
